<svg width="167" height="37" viewBox="0 0 167 37" fill="none" xmlns="http://www.w3.org/2000/svg">
<path d="M100.111 22.6631H80.2342C80.509 24.2923 81.2854 25.5724 82.5038 26.5499C83.77 27.5041 85.3586 27.9812 87.2818 27.9929C89.5871 27.9929 92 27.283 93.1229 25.712H99.6568C98.5459 28.6097 95.5955 30.9953 93.7918 31.8099C91.9881 32.6477 89.826 33.0434 87.3415 33.0434C83.4952 33.0434 80.3537 31.903 77.9169 29.6454C75.4921 27.3645 74.2856 24.5367 74.2856 21.127C74.2856 17.6242 75.504 14.7266 77.9169 12.4224C80.3298 10.1183 83.3638 8.96619 87.007 8.96619C90.8891 8.96619 94.0546 10.1183 96.4675 12.4224C98.9042 14.7149 100.123 17.7639 100.123 21.5576L100.111 22.6631ZM93.9829 18.1362C93.5768 16.8911 92.7884 15.8554 91.5581 15.0873C90.3636 14.2844 88.9421 13.8887 87.3534 13.9003C85.6334 13.9003 84.1044 14.3425 82.8143 15.227C81.9901 15.7739 81.2137 16.7514 80.5329 18.1362H93.9829Z" fill="black"/>
<path d="M135.36 18.497C135.289 25.3978 132.649 29.657 130.965 31.9378C129.268 34.2304 127.417 35.5686 127.035 35.8247C126.402 36.2436 126.939 37.128 127.548 36.9767C132.159 35.8479 137.212 35.4755 137.212 35.4755C137.212 35.4755 141.321 35.5686 142.898 30.6229C143.925 27.411 145.514 22.7445 145.514 18.497C145.514 14.2494 143.925 9.58293 142.898 6.37108C141.321 1.42531 137.212 1.5184 137.212 1.5184C137.212 1.5184 132.171 1.14601 127.548 0.0172099C126.939 -0.134073 126.402 0.750351 127.035 1.16929C127.417 1.4253 129.268 2.76357 130.965 5.05609C132.649 7.33696 135.289 11.5962 135.36 18.497Z" fill="black"/>
<path d="M158.39 18.497C158.462 25.3978 161.102 29.657 162.786 31.9378C164.482 34.2304 166.334 35.5686 166.716 35.8247C167.349 36.2436 166.811 37.128 166.202 36.9767C161.592 35.8479 156.539 35.4755 156.539 35.4755C156.539 35.4755 152.43 35.5686 150.853 30.6229C149.826 27.411 148.237 22.7445 148.237 18.497C148.237 14.2494 149.826 9.58293 150.853 6.37108C152.43 1.42531 156.539 1.5184 156.539 1.5184C156.539 1.5184 161.58 1.14601 166.202 0.0172099C166.811 -0.134073 167.349 0.750351 166.716 1.16929C166.334 1.4253 164.482 2.76357 162.786 5.05609C161.102 7.33696 158.45 11.5962 158.39 18.497Z" fill="black"/>
<path d="M37.3997 33.055C34.6404 33.055 32.4067 32.4848 30.7105 31.356C29.0144 30.2272 27.8199 28.6445 27.1151 26.6197C26.6373 25.2232 26.3745 22.6631 26.3745 18.9625V9.53638H32.6217V20.5335C32.6098 22.7096 32.7651 24.2224 33.0995 25.0719C33.434 25.9215 33.9596 26.5731 34.7002 27.0503C35.4169 27.5041 36.3366 27.7601 37.3997 27.7601C38.4628 27.7601 39.3706 27.5041 40.0993 27.0503C40.8399 26.5731 41.3535 25.9215 41.6999 25.0719C42.0344 24.2224 42.2016 22.698 42.1777 20.5335V9.53638H48.4249V18.9625C48.4249 22.6631 48.1741 25.2232 47.6843 26.6197C46.9915 28.6445 45.7851 30.2388 44.0889 31.356C42.4047 32.4848 40.1709 33.055 37.3997 33.055Z" fill="black"/>
<path d="M117.909 9.53638L111.279 23.1984L105.295 9.53638H98.498L107.72 30.5414L104.59 37H111.494L124.813 9.53638H117.909Z" fill="black"/>
<path d="M18.025 1.49512V13.1788H6.24722V1.49512H0V32.7059H6.24722V18.9741H18.025V32.7059H24.2722V1.49512H18.025Z" fill="black"/>
<path d="M72.1955 1.49512H65.9482V32.7175H72.1955V1.49512Z" fill="black"/>
<path d="M56.7863 20.7663V32.6943H50.5391V9.52481H55.9501V11.8988C57.5746 8.79167 61.4926 8.34945 63.8219 9.72264V15.0175C63.2366 14.715 61.2059 13.7607 59.0678 15.0292C57.2641 16.1114 56.7863 18.113 56.7863 20.7663Z" fill="black"/>
</svg>
